[Header]
FileType HTR
DataType HTRS
FileVersion 1
NumSegments 64
NumFrames 3
DataFrameRate 24
EulerRotationOrder ZYX
CalibrationUnits mm
RotationUnits Degrees
GlobalAxisofGravity Y
BoneLengthAxis Y
ScaleFactor 1.0
[SegmentNames&Hierarchy]
Hips	GLOBAL
Spine	Hips
Spine1	Spine
Spine2	Spine1
Neck	Spine2
Head	Neck
LeftEye	Head
RightEye	Head
LeftShoulder	Spine2
LeftArm	LeftShoulder
LeftForeArm	LeftArm
LeftHand	LeftForeArm
LeftHandThumb1	LeftHand
LeftHandThumb2	LeftHandThumb1
LeftHandThumb3	LeftHandThumb2
LeftHandThumb4	LeftHandThumb3
LeftHandIndex1	LeftHand
LeftHandIndex2	LeftHandIndex1
LeftHandIndex3	LeftHandIndex2
LeftHandIndex4	LeftHandIndex3
LeftHandMiddle1	LeftHand
LeftHandMiddle2	LeftHandMiddle1
LeftHandMiddle3	LeftHandMiddle2
LeftHandMiddle4	LeftHandMiddle3
LeftHandRing1	LeftHand
LeftHandRing2	LeftHandRing1
LeftHandRing3	LeftHandRing2
LeftHandRing4	LeftHandRing3
LeftHandPinky1	LeftHand
LeftHandPinky2	LeftHandPinky1
LeftHandPinky3	LeftHandPinky2
LeftHandPinky4	LeftHandPinky3
RightShoulder	Spine2
RightArm	RightShoulder
RightForeArm	RightArm
RightHand	RightForeArm
RightHandPinky1	RightHand
RightHandPinky2	RightHandPinky1
RightHandPinky3	RightHandPinky2
RightHandPinky4	RightHandPinky3
RightHandRing1	RightHand
RightHandRing2	RightHandRing1
RightHandRing3	RightHandRing2
RightHandRing4	RightHandRing3
RightHandMiddle1	RightHand
RightHandMiddle2	RightHandMiddle1
RightHandMiddle3	RightHandMiddle2
RightHandMiddle4	RightHandMiddle3
RightHandIndex1	RightHand
RightHandIndex2	RightHandIndex1
RightHandIndex3	RightHandIndex2
RightHandIndex4	RightHandIndex3
RightHandThumb1	RightHand
RightHandThumb2	RightHandThumb1
RightHandThumb3	RightHandThumb2
RightHandThumb4	RightHandThumb3
LeftUpLeg	Hips
LeftLeg	LeftUpLeg
LeftFoot	LeftLeg
LeftToeBase	LeftFoot
RightUpLeg	Hips
RightLeg	RightUpLeg
RightFoot	RightLeg
RightToeBase	RightFoot
[BasePosition]
Hips	0	0	0	0	0	0	1
Spine	0	0	0	0	0	0	1
Spine1	0	0	0	0	0	0	1
Spine2	0	0	0	0	0	0	1
Neck	0	0	0	0	0	0	1
Head	0	0	0	0	0	0	1
LeftEye	0	0	0	0	0	0	1
RightEye	0	0	0	0	0	0	1
LeftShoulder	0	0	0	0	0	0	1
LeftArm	0	0	0	0	0	0	1
LeftForeArm	0	0	0	0	0	0	1
LeftHand	0	0	0	0	0	0	1
LeftHandThumb1	0	0	0	0	0	0	1
LeftHandThumb2	0	0	0	0	0	0	1
LeftHandThumb3	0	0	0	0	0	0	1
LeftHandThumb4	0	0	0	0	0	0	1
LeftHandIndex1	0	0	0	0	0	0	1
LeftHandIndex2	0	0	0	0	0	0	1
LeftHandIndex3	0	0	0	0	0	0	1
LeftHandIndex4	0	0	0	0	0	0	1
LeftHandMiddle1	0	0	0	0	0	0	1
LeftHandMiddle2	0	0	0	0	0	0	1
LeftHandMiddle3	0	0	0	0	0	0	1
LeftHandMiddle4	0	0	0	0	0	0	1
LeftHandRing1	0	0	0	0	0	0	1
LeftHandRing2	0	0	0	0	0	0	1
LeftHandRing3	0	0	0	0	0	0	1
LeftHandRing4	0	0	0	0	0	0	1
LeftHandPinky1	0	0	0	0	0	0	1
LeftHandPinky2	0	0	0	0	0	0	1
LeftHandPinky3	0	0	0	0	0	0	1
LeftHandPinky4	0	0	0	0	0	0	1
RightShoulder	0	0	0	0	0	0	1
RightArm	0	0	0	0	0	0	1
RightForeArm	0	0	0	0	0	0	1
RightHand	0	0	0	0	0	0	1
RightHandPinky1	0	0	0	0	0	0	1
RightHandPinky2	0	0	0	0	0	0	1
RightHandPinky3	0	0	0	0	0	0	1
RightHandPinky4	0	0	0	0	0	0	1
RightHandRing1	0	0	0	0	0	0	1
RightHandRing2	0	0	0	0	0	0	1
RightHandRing3	0	0	0	0	0	0	1
RightHandRing4	0	0	0	0	0	0	1
RightHandMiddle1	0	0	0	0	0	0	1
RightHandMiddle2	0	0	0	0	0	0	1
RightHandMiddle3	0	0	0	0	0	0	1
RightHandMiddle4	0	0	0	0	0	0	1
RightHandIndex1	0	0	0	0	0	0	1
RightHandIndex2	0	0	0	0	0	0	1
RightHandIndex3	0	0	0	0	0	0	1
RightHandIndex4	0	0	0	0	0	0	1
RightHandThumb1	0	0	0	0	0	0	1
RightHandThumb2	0	0	0	0	0	0	1
RightHandThumb3	0	0	0	0	0	0	1
RightHandThumb4	0	0	0	0	0	0	1
LeftUpLeg	0	0	0	0	0	0	1
LeftLeg	0	0	0	0	0	0	1
LeftFoot	0	0	0	0	0	0	1
LeftToeBase	0	0	0	0	0	0	1
RightUpLeg	0	0	0	0	0	0	1
RightLeg	0	0	0	0	0	0	1
RightFoot	0	0	0	0	0	0	1
RightToeBase	0	0	0	0	0	0	1
[Hips]
11	0.4239930212	695.7567139	236.9537048	13.40699673	0.5658693314	0.07025234401	1.0
12	0.8409372568	653.324707	265.9078369	16.59579277	0.8016521335	-0.1304514706	1.0
13	1.241346359	622.2955933	287.5306396	20.15693665	0.9953396916	-0.3359272182	1.0
[Spine]
11	0	101.8159943	1.315000057	-7.179967403	-0.5667404532	0.06284721196	1.0
12	0	101.8159943	1.315000057	-5.568827152	-0.7309944034	0.3539841771	1.0
13	0	101.8159943	1.315000057	-3.520123959	-0.8185870647	0.6583735943	1.0
[Spine1]
11	0	100.8349991	-10.00800037	-20.66174316	-1.729315773e-05	6.514989946e-05	1.0
12	0	100.8349991	-10.00800037	-19.07599449	-1.912535845e-05	6.46354456e-05	1.0
13	0	100.8349991	-10.00800037	-17.11047745	-2.137503361e-05	6.392646901e-05	1.0
[Spine2]
11	0	91	-13.73399925	-20.86580276	1.44246755e-07	2.820388545e-07	1.0
12	0	91	-13.73399925	-17.96552467	1.282962643e-07	2.895845626e-07	1.0
13	0	91	-13.73399925	-14.46223259	1.085315802e-07	2.975052098e-07	1.0
[Neck]
11	0	166.7169952	-25.16200066	-10.88541794	3.763082077e-07	2.841689195e-07	1.0
12	0	166.7169952	-25.16200066	-12.07438469	3.827128978e-07	2.755231208e-07	1.0
13	0	166.7169952	-25.16200066	-13.24945736	3.888549998e-07	2.66829943e-07	1.0
[Head]
11	0	96.17900085	16.84999847	8.756334305	-0.2158883959	-0.1923545003	1.0
12	0	96.17900085	16.84999847	-1.087877154	-0.2263146937	-0.1783377081	1.0
13	0	96.17900085	16.84999847	-11.79841614	-0.2355005592	-0.1591225564	1.0
[LeftEye]
11	30.6760006	64.09500122	92.83599854	0	0	0	1.0
12	30.6760006	64.09500122	92.83599854	0	0	0	1.0
13	30.6760006	64.09500122	92.83599854	0	0	0	1.0
[RightEye]
11	-30.6760006	64.09500122	92.83499908	0	0	0	1.0
12	-30.6760006	64.09500122	92.83499908	0	0	0	1.0
13	-30.6760006	64.09500122	92.83499908	0	0	0	1.0
[LeftShoulder]
11	45.70400238	109.4599991	-26.28000069	14.42835045	6.592525005	41.83201599	1.0
12	45.70400238	109.4599991	-26.28000069	13.4535923	4.346521854	44.71064377	1.0
13	45.70400238	109.4599991	-26.28000069	11.95163059	3.31010437	44.3541832	1.0
[LeftArm]
11	105.923996	-5.24600029	-22.32099915	-35.92557907	-2.346087456	3.363037825	1.0
12	105.923996	-5.24600029	-22.32099915	-56.9773407	-9.542994499	9.081394196	1.0
13	105.923996	-5.24600029	-22.32099915	-65.48577881	-11.08964157	13.88166904	1.0
[LeftForeArm]
11	278.414978	-0.0009999999311	0	6.125663731e-06	-8.648434639	-0.0002006949944	1.0
12	278.414978	-0.0009999999311	0	5.962702744e-06	-5.794211388	-0.000210205093	1.0
13	278.414978	-0.0009999999311	0	7.957181651e-07	-9.890656471	-0.0001961000235	1.0
[LeftHand]
11	283.2879944	0	0	-78.45756531	18.46147919	15.26844501	1.0
12	283.2879944	0	0	-69.27931976	17.20583153	20.56165123	1.0
13	283.2879944	0	0	-61.13568878	15.208498	24.71056938	1.0
[LeftHandThumb1]
11	24.6609993	-15.75	26.8239994	6.472888947	-42.47664642	-6.934456825	1.0
12	24.6609993	-15.75	26.8239994	15.02760315	-34.28175354	-28.43880272	1.0
13	24.6609993	-15.75	26.8239994	16.17813301	-26.00323296	-38.10343933	1.0
[LeftHandThumb2]
11	32.29800034	-18.64699936	18.64699936	17.98145294	26.70379448	9.38958931	1.0
12	32.29800034	-18.64699936	18.64699936	37.2798233	41.64906311	23.45478249	1.0
13	32.29800034	-18.64699936	18.64699936	56.98833084	49.26650238	39.60214233	1.0
[LeftHandThumb3]
11	26.52600098	-15.31499958	15.31499958	8.837382317	17.93538475	19.52320862	1.0
12	26.52600098	-15.31499958	15.31499958	25.70451736	35.73523712	28.63183975	1.0
13	26.52600098	-15.31499958	15.31499958	44.31689453	46.33662796	40.41714096	1.0
[LeftHandThumb4]
11	19.54599953	-11.28499985	11.28499985	0	0	0	1.0
12	19.54599953	-11.28499985	11.28499985	0	0	0	1.0
13	19.54599953	-11.28499985	11.28499985	0	0	0	1.0
[LeftHandIndex1]
11	91.09299469	-5.170999527	22.60099792	-0.6561987996	-11.08174419	-15.37524605	1.0
12	91.09299469	-5.170999527	22.60099792	-2.493859291	2.876419306	-37.2662735	1.0
13	91.09299469	-5.170999527	22.60099792	-4.186021805	13.36346054	-54.56235504	1.0
[LeftHandIndex2]
11	36.76399994	0	0	-0.04017804563	0.6842305064	-6.722756386	1.0
12	36.76399994	0	0	-0.775410533	2.907640219	-29.85824776	1.0
13	36.76399994	0	0	-1.886416912	4.295140743	-47.40620804	1.0
[LeftHandIndex3]
11	28.83100128	0	0	-0.1299840361	1.225712419	-12.10604382	1.0
12	28.83100128	0	0	-1.166911483	3.501470327	-36.85284424	1.0
13	28.83100128	0	0	-1.993530989	4.390907288	-48.82073975	1.0
[LeftHandIndex4]
11	23.92700005	0	0	0	0	0	1.0
12	23.92700005	0	0	0	0	0	1.0
13	23.92700005	0	0	0	0	0	1.0
[LeftHandMiddle1]
11	95.33399963	0	0	-0.3371908665	-4.876312733	-8.995240211	1.0
12	95.33399963	0	0	-2.478108644	1.943659306	-36.46556854	1.0
13	95.33399963	0	0	-4.497133732	6.556909084	-56.18451691	1.0
[LeftHandMiddle2]
11	36.98199844	0	0	-0.170537293	1.401520371	-13.87535477	1.0
12	36.98199844	0	0	-1.208700895	3.556447506	-37.53181076	1.0
13	36.98199844	0	0	-2.409491301	4.721470833	-54.05335617	1.0
[LeftHandMiddle3]
11	29.50900078	0	0	-0.2108003199	1.555392265	-15.43572807	1.0
12	29.50900078	0	0	-0.9936113358	3.257889509	-33.91410446	1.0
13	29.50900078	0	0	-1.945791364	4.348807335	-48.19402695	1.0
[LeftHandMiddle4]
11	28.3390007	0	0	0	0	0	1.0
12	28.3390007	0	0	0	0	0	1.0
13	28.3390007	0	0	0	0	0	1.0
[LeftHandRing1]
11	91.04499817	-0.4390000105	-18.65100098	-0.07617723942	13.30152702	-5.353107452	1.0
12	91.04499817	-0.4390000105	-18.65100098	-2.206001997	8.144784927	-32.95370483	1.0
13	91.04499817	-0.4390000105	-18.65100098	-4.23484993	2.216748238	-53.0817337	1.0
[LeftHandRing2]
11	31.54000092	0	0	-0.07444839925	0.929892838	-9.154343605	1.0
12	31.54000092	0	0	-0.8571990728	3.045531034	-31.43342018	1.0
13	31.54000092	0	0	-1.83527112	4.247684479	-46.71949005	1.0
[LeftHandRing3]
11	29.37700081	0	0	-0.006007147022	0.2649162412	-2.597651482	1.0
12	29.37700081	0	0	-0.52978158	2.430703163	-24.58763313	1.0
13	29.37700081	0	0	-1.379464149	3.767891645	-40.2050209	1.0
[LeftHandRing4]
11	26.47500038	0	0	0	0	0	1.0
12	26.47500038	0	0	0	0	0	1.0
13	26.47500038	0	0	0	0	0	1.0
[LeftHandPinky1]
11	80.77799988	-4.887000084	-38.06099701	1.241389394	37.87807846	-3.543130636	1.0
12	80.77799988	-4.887000084	-38.06099701	-1.67268455	17.1950264	-27.3276329	1.0
13	80.77799988	-4.887000084	-38.06099701	-3.816524744	-2.263805389	-48.68652344	1.0
[LeftHandPinky2]
11	36	0	0	-0.04626620188	0.7338585854	-7.212657928	1.0
12	36	0	0	-0.712803483	2.795920372	-28.60014343	1.0
13	36	0	0	-1.395198584	3.786388397	-40.44378281	1.0
[LeftHandPinky3]
11	21.14200211	0	0	-0.03391511366	0.6288650632	-6.176285267	1.0
12	21.14200211	0	0	-0.9227611423	3.150134563	-32.64651871	1.0
13	21.14200211	0	0	-1.78574574	4.20059967	-46.04708862	1.0
[LeftHandPinky4]
11	19.75699997	0	0	0	0	0	1.0
12	19.75699997	0	0	0	0	0	1.0
13	19.75699997	0	0	0	0	0	1.0
[RightShoulder]
11	-45.70000076	109.4620056	-26.28000069	14.42827988	-6.592557907	-41.83202362	1.0
12	-45.70000076	109.4620056	-26.28000069	13.45351791	-4.346568584	-44.71065521	1.0
13	-45.70000076	109.4620056	-26.28000069	11.95154858	-3.310141563	-44.35420609	1.0
[RightArm]
11	-105.9280014	-5.248000145	-22.32099915	-35.92555618	2.346218348	-3.362784624	1.0
12	-105.9280014	-5.248000145	-22.32099915	-56.97728348	9.543224335	-9.081142426	1.0
13	-105.9280014	-5.248000145	-22.32099915	-65.48575592	11.08991528	-13.88142967	1.0
[RightForeArm]
11	-278.414978	0	0	5.911323569e-06	8.648267746	7.112409151e-08	1.0
12	-278.414978	0	0	-4.944432931e-06	5.794091702	-3.232398058e-06	1.0
13	-278.414978	0	0	-5.49655897e-06	9.890548706	2.420676765e-06	1.0
[RightHand]
11	-283.2879944	0	0.0009999999311	-77.37319946	-17.76114082	-14.95678043	1.0
12	-283.2879944	0	0.0009999999311	-68.22066498	-16.5615921	-20.13952827	1.0
13	-283.2879944	0	0.0009999999311	-60.08529663	-14.62795067	-24.20242691	1.0
[RightHandPinky1]
11	-80.76699829	-4.885000229	-38.06000137	0.2018768936	-24.4268856	5.120004654	1.0
12	-80.76699829	-4.885000229	-38.06000137	-1.490158916	-15.5164156	26.93126488	1.0
13	-80.76699829	-4.885000229	-38.06000137	-3.301793337	3.239243031	47.90744019	1.0
[RightHandPinky2]
11	-36	0	0.0009999999311	-0.02529040165	-0.483843416	6.004310131	1.0
12	-36	0	0.0009999999311	-0.5435563326	-2.178641558	28.03422546	1.0
13	-36	0	0.0009999999311	-1.109913588	-3.00972724	40.49766922	1.0
[RightHandPinky3]
11	-21.14200211	0	0	-0.0276570674	-0.5057774782	6.257301807	1.0
12	-21.14200211	0	0	-0.7295612693	-2.496763706	32.57240295	1.0
13	-21.14200211	0	0	-1.421619177	-3.340121269	46.10165024	1.0
[RightHandPinky4]
11	-19.75699997	0	0	0	0	0	1.0
12	-19.75699997	0	0	0	0	0	1.0
13	-19.75699997	0	0	0	0	0	1.0
[RightHandRing1]
11	-91.03599548	-0.4390000105	-18.65100098	-0.07685129344	-13.05384159	4.879059792	1.0
12	-91.03599548	-0.4390000105	-18.65100098	-1.9374336	-7.387214661	32.33230209	1.0
13	-91.03599548	-0.4390000105	-18.65100098	-3.64227128	-1.190288305	52.35306931	1.0
[RightHandRing2]
11	-31.54000092	0	0	-0.05932433158	-0.7396291494	9.171541214	1.0
12	-31.54000092	0	0	-0.682777822	-2.422045231	31.48205376	1.0
13	-31.54000092	0	0	-1.461025	-3.377503872	46.77404785	1.0
[RightHandRing3]
11	-29.37700081	0	0	-0.004781947937	-0.2107223868	2.602593899	1.0
12	-29.37700081	0	0	-0.4220549762	-1.93321681	24.6289978	1.0
13	-29.37700081	0	0	-1.098432064	-2.996243477	40.2589035	1.0
[RightHandRing4]
11	-26.47500038	0	0	0	0	0	1.0
12	-26.47500038	0	0	0	0	0	1.0
13	-26.47500038	0	0	0	0	0	1.0
[RightHandMiddle1]
11	-95.32500458	0	0	-0.2937799692	5.193708897	8.147603989	1.0
12	-95.32500458	0	0	-2.153955221	-1.132107615	35.74235153	1.0
13	-95.32500458	0	0	-3.850519896	-5.499184608	55.49549103	1.0
[RightHandMiddle2]
11	-36.98199844	0	0	-0.1358978152	-1.114741802	13.90082741	1.0
12	-36.98199844	0	0	-0.9625369906	-2.82817173	37.58465195	1.0
13	-36.98199844	0	0	-1.91760385	-3.753997803	54.10528946	1.0
[RightHandMiddle3]
11	-29.50900078	0	0	-0.1679720283	-1.239157081	15.4638052	1.0
12	-29.50900078	0	0	-0.7913525701	-2.59290266	33.96478271	1.0
13	-29.50900078	0	0	-1.548910975	-3.459886312	48.24838638	1.0
[RightHandMiddle4]
11	-28.3390007	0	0.0009999999311	0	0	0	1.0
12	-28.3390007	0	0.0009999999311	0	0	0	1.0
13	-28.3390007	0	0.0009999999311	0	0	0	1.0
[RightHandIndex1]
11	-91.08300018	-5.167999744	22.60099792	-0.5882860422	11.52350616	14.40780258	1.0
12	-91.08300018	-5.167999744	22.60099792	-2.158675194	-2.052656412	36.55664063	1.0
13	-91.08300018	-5.167999744	22.60099792	-3.580153942	-12.32121754	53.94660187	1.0
[RightHandIndex2]
11	-36.76399994	0	0	-0.0320308581	-0.5442802906	6.735480785	1.0
12	-36.76399994	0	0	-0.6176491976	-2.312418461	29.90547943	1.0
13	-36.76399994	0	0	-1.501701236	-3.415236473	47.4607048	1.0
[RightHandIndex3]
11	-28.83100128	0	0	-0.103575848	-0.9749271274	12.12848568	1.0
12	-28.83100128	0	0	-0.9292862415	-2.784486294	36.90535355	1.0
13	-28.83100128	0	0	-1.586895943	-3.491348743	48.87495041	1.0
[RightHandIndex4]
11	-23.92700005	0	0	0	0	0	1.0
12	-23.92700005	0	0	0	0	0	1.0
13	-23.92700005	0	0	0	0	0	1.0
[RightHandThumb1]
11	-24.64799881	-15.72700024	26.82600021	6.39912653	44.43870544	7.228640556	1.0
12	-24.64799881	-15.72700024	26.82600021	15.15691948	36.39876175	29.19425011	1.0
13	-24.64799881	-15.72700024	26.82600021	16.21627045	28.23867798	38.9641304	1.0
[RightHandThumb2]
11	-32.29800034	-18.64699936	18.64699936	18.8129158	-28.4173069	-10.5441494	1.0
12	-32.29800034	-18.64699936	18.64699936	38.63495636	-43.34650421	-25.02643204	1.0
13	-32.29800034	-18.64699936	18.64699936	59.12582779	-50.80171204	-41.87759781	1.0
[RightHandThumb3]
11	-26.52600098	-15.31399918	15.31399918	12.94044876	-22.99384689	-22.04426193	1.0
12	-26.52600098	-15.31399918	15.31399918	31.75585747	-39.95311356	-33.10629272	1.0
13	-26.52600098	-15.31399918	15.31399918	52.77823257	-49.20143509	-47.22680664	1.0
[RightHandThumb4]
11	-19.54599953	-11.28499985	11.28499985	0	0	0	1.0
12	-19.54599953	-11.28499985	11.28499985	0	0	0	1.0
13	-19.54599953	-11.28499985	11.28499985	0	0	0	1.0
[LeftUpLeg]
11	82.07800293	-67.51699829	-15.99599934	-34.52266693	3.441091299	6.610625267	1.0
12	82.07800293	-67.51699829	-15.99599934	-35.96291351	1.325211883	7.032803535	1.0
13	82.07800293	-67.51699829	-15.99599934	-37.96530914	-0.9183221459	7.193294048	1.0
[LeftLeg]
11	0	-443.7049866	2.845999956	89.01171875	8.385370255	-8.662216187	1.0
12	0	-443.7049866	2.845999956	93.37206268	9.169634819	-7.209512711	1.0
13	0	-443.7049866	2.845999956	96.1342926	9.493405342	-5.894918919	1.0
[LeftFoot]
11	0	-444.2789917	-29.8219986	-67.76345825	0.3626872599	9.202692986	1.0
12	0	-444.2789917	-29.8219986	-74.08006287	0.4894287884	8.652956009	1.0
13	0	-444.2789917	-29.8219986	-78.60025787	0.8981984854	7.598562717	1.0
[LeftToeBase]
11	0	-87.28699493	107.1060028	-4.142018224e-05	1.066934701e-07	-8.164652741e-07	1.0
12	0	-87.28699493	107.1060028	2.002621841e-05	8.533244227e-07	-2.472782398e-06	1.0
13	0	-87.28699493	107.1060028	-0.0001140691311	-1.919367833e-06	-3.226408808e-06	1.0
[RightUpLeg]
11	-82.07800293	-67.51699829	-15.99599934	-86.36199951	-2.65127039	-5.159480572	1.0
12	-82.07800293	-67.51699829	-15.99599934	-97.19078064	-0.4668382704	-9.037112236	1.0
13	-82.07800293	-67.51699829	-15.99599934	-105.8447037	0.3550713062	-13.3605547	1.0
[RightLeg]
11	0	-443.7049866	2.861999989	87.44731903	-8.018149376	5.901027203	1.0
12	0	-443.7049866	2.861999989	88.07567596	-8.458065033	1.475003004	1.0
13	0	-443.7049866	2.861999989	85.57365417	-8.84317112	-1.873561382	1.0
[RightFoot]
11	0	-444.2770081	-29.83799934	-14.76077461	-3.335573196	-3.083315372	1.0
12	0	-444.2770081	-29.83799934	-7.738244057	-2.921612263	0.737814486	1.0
13	0	-444.2770081	-29.83799934	0.01822771877	-3.414073467	4.073710918	1.0
[RightToeBase]
11	0	-87.28699493	107.1060028	-1.515573604e-05	-2.909377805e-08	-1.999551955e-07	1.0
12	0	-87.28699493	107.1060028	-1.515573604e-05	-2.909377805e-08	-1.999551955e-07	1.0
13	0	-87.28699493	107.1060028	-1.515573604e-05	-2.909377805e-08	-1.999551955e-07	1.0
[EndOfFile]
